<?xml version="1.0" encoding="UTF-8" standalone="no"?>
<!DOCTYPE svg PUBLIC "-//W3C//DTD SVG 1.1//EN"
 "http://www.w3.org/Graphics/SVG/1.1/DTD/svg11.dtd">
<!-- Generated by graphviz version 3.0.0 (0)
 -->
<!-- Title: G Pages: 1 -->
<svg width="705pt" height="1401pt"
 viewBox="0.00 0.00 529.00 1051.00" xmlns="http://www.w3.org/2000/svg" xmlns:xlink="http://www.w3.org/1999/xlink">
<g id="graph0" class="graph" transform="scale(1.33333 1.33333) rotate(0) translate(4 1047)">
<title>G</title>
<polygon fill="white" stroke="transparent" points="-4,4 -4,-1047 525,-1047 525,4 -4,4"/>
<!-- 139740721559152 -->
<g id="node1" class="node">
<title>139740721559152</title>
<polygon fill="none" stroke="black" points="16.5,-996.5 16.5,-1042.5 504.5,-1042.5 504.5,-996.5 16.5,-996.5"/>
<text text-anchor="middle" x="79.5" y="-1027.3" font-family="Times,serif" font-size="14.00">rescaling_input</text>
<polyline fill="none" stroke="black" points="16.5,-1019.5 142.5,-1019.5 "/>
<text text-anchor="middle" x="79.5" y="-1004.3" font-family="Times,serif" font-size="14.00">InputLayer</text>
<polyline fill="none" stroke="black" points="142.5,-996.5 142.5,-1042.5 "/>
<text text-anchor="middle" x="176.5" y="-1027.3" font-family="Times,serif" font-size="14.00">input:</text>
<polyline fill="none" stroke="black" points="142.5,-1019.5 210.5,-1019.5 "/>
<text text-anchor="middle" x="176.5" y="-1004.3" font-family="Times,serif" font-size="14.00">output:</text>
<polyline fill="none" stroke="black" points="210.5,-996.5 210.5,-1042.5 "/>
<text text-anchor="middle" x="284" y="-1015.8" font-family="Times,serif" font-size="14.00">[(None, 28, 28, 1)]</text>
<polyline fill="none" stroke="black" points="357.5,-996.5 357.5,-1042.5 "/>
<text text-anchor="middle" x="431" y="-1015.8" font-family="Times,serif" font-size="14.00">[(None, 28, 28, 1)]</text>
</g>
<!-- 139740787454640 -->
<g id="node2" class="node">
<title>139740787454640</title>
<polygon fill="none" stroke="black" points="46.5,-913.5 46.5,-959.5 474.5,-959.5 474.5,-913.5 46.5,-913.5"/>
<text text-anchor="middle" x="89.5" y="-944.3" font-family="Times,serif" font-size="14.00">rescaling</text>
<polyline fill="none" stroke="black" points="46.5,-936.5 132.5,-936.5 "/>
<text text-anchor="middle" x="89.5" y="-921.3" font-family="Times,serif" font-size="14.00">Rescaling</text>
<polyline fill="none" stroke="black" points="132.5,-913.5 132.5,-959.5 "/>
<text text-anchor="middle" x="166.5" y="-944.3" font-family="Times,serif" font-size="14.00">input:</text>
<polyline fill="none" stroke="black" points="132.5,-936.5 200.5,-936.5 "/>
<text text-anchor="middle" x="166.5" y="-921.3" font-family="Times,serif" font-size="14.00">output:</text>
<polyline fill="none" stroke="black" points="200.5,-913.5 200.5,-959.5 "/>
<text text-anchor="middle" x="269" y="-932.8" font-family="Times,serif" font-size="14.00">(None, 28, 28, 1)</text>
<polyline fill="none" stroke="black" points="337.5,-913.5 337.5,-959.5 "/>
<text text-anchor="middle" x="406" y="-932.8" font-family="Times,serif" font-size="14.00">(None, 28, 28, 1)</text>
</g>
<!-- 139740721559152&#45;&gt;139740787454640 -->
<g id="edge1" class="edge">
<title>139740721559152&#45;&gt;139740787454640</title>
<path fill="none" stroke="black" d="M260.5,-996.37C260.5,-988.15 260.5,-978.66 260.5,-969.73"/>
<polygon fill="black" stroke="black" points="264,-969.61 260.5,-959.61 257,-969.61 264,-969.61"/>
</g>
<!-- 139740721552528 -->
<g id="node3" class="node">
<title>139740721552528</title>
<polygon fill="none" stroke="black" points="48.5,-830.5 48.5,-876.5 472.5,-876.5 472.5,-830.5 48.5,-830.5"/>
<text text-anchor="middle" x="85" y="-861.3" font-family="Times,serif" font-size="14.00">conv2d</text>
<polyline fill="none" stroke="black" points="48.5,-853.5 121.5,-853.5 "/>
<text text-anchor="middle" x="85" y="-838.3" font-family="Times,serif" font-size="14.00">Conv2D</text>
<polyline fill="none" stroke="black" points="121.5,-830.5 121.5,-876.5 "/>
<text text-anchor="middle" x="155.5" y="-861.3" font-family="Times,serif" font-size="14.00">input:</text>
<polyline fill="none" stroke="black" points="121.5,-853.5 189.5,-853.5 "/>
<text text-anchor="middle" x="155.5" y="-838.3" font-family="Times,serif" font-size="14.00">output:</text>
<polyline fill="none" stroke="black" points="189.5,-830.5 189.5,-876.5 "/>
<text text-anchor="middle" x="258" y="-849.8" font-family="Times,serif" font-size="14.00">(None, 28, 28, 1)</text>
<polyline fill="none" stroke="black" points="326.5,-830.5 326.5,-876.5 "/>
<text text-anchor="middle" x="399.5" y="-849.8" font-family="Times,serif" font-size="14.00">(None, 26, 26, 28)</text>
</g>
<!-- 139740787454640&#45;&gt;139740721552528 -->
<g id="edge2" class="edge">
<title>139740787454640&#45;&gt;139740721552528</title>
<path fill="none" stroke="black" d="M260.5,-913.37C260.5,-905.15 260.5,-895.66 260.5,-886.73"/>
<polygon fill="black" stroke="black" points="264,-886.61 260.5,-876.61 257,-886.61 264,-886.61"/>
</g>
<!-- 139740721552480 -->
<g id="node4" class="node">
<title>139740721552480</title>
<polygon fill="none" stroke="black" points="18.5,-747.5 18.5,-793.5 502.5,-793.5 502.5,-747.5 18.5,-747.5"/>
<text text-anchor="middle" x="80.5" y="-778.3" font-family="Times,serif" font-size="14.00">max_pooling2d</text>
<polyline fill="none" stroke="black" points="18.5,-770.5 142.5,-770.5 "/>
<text text-anchor="middle" x="80.5" y="-755.3" font-family="Times,serif" font-size="14.00">MaxPooling2D</text>
<polyline fill="none" stroke="black" points="142.5,-747.5 142.5,-793.5 "/>
<text text-anchor="middle" x="176.5" y="-778.3" font-family="Times,serif" font-size="14.00">input:</text>
<polyline fill="none" stroke="black" points="142.5,-770.5 210.5,-770.5 "/>
<text text-anchor="middle" x="176.5" y="-755.3" font-family="Times,serif" font-size="14.00">output:</text>
<polyline fill="none" stroke="black" points="210.5,-747.5 210.5,-793.5 "/>
<text text-anchor="middle" x="283.5" y="-766.8" font-family="Times,serif" font-size="14.00">(None, 26, 26, 28)</text>
<polyline fill="none" stroke="black" points="356.5,-747.5 356.5,-793.5 "/>
<text text-anchor="middle" x="429.5" y="-766.8" font-family="Times,serif" font-size="14.00">(None, 13, 13, 28)</text>
</g>
<!-- 139740721552528&#45;&gt;139740721552480 -->
<g id="edge3" class="edge">
<title>139740721552528&#45;&gt;139740721552480</title>
<path fill="none" stroke="black" d="M260.5,-830.37C260.5,-822.15 260.5,-812.66 260.5,-803.73"/>
<polygon fill="black" stroke="black" points="264,-803.61 260.5,-793.61 257,-803.61 264,-803.61"/>
</g>
<!-- 139740721552192 -->
<g id="node5" class="node">
<title>139740721552192</title>
<polygon fill="none" stroke="black" points="0,-664.5 0,-710.5 521,-710.5 521,-664.5 0,-664.5"/>
<text text-anchor="middle" x="80.5" y="-695.3" font-family="Times,serif" font-size="14.00">batch_normalization</text>
<polyline fill="none" stroke="black" points="0,-687.5 161,-687.5 "/>
<text text-anchor="middle" x="80.5" y="-672.3" font-family="Times,serif" font-size="14.00">BatchNormalization</text>
<polyline fill="none" stroke="black" points="161,-664.5 161,-710.5 "/>
<text text-anchor="middle" x="195" y="-695.3" font-family="Times,serif" font-size="14.00">input:</text>
<polyline fill="none" stroke="black" points="161,-687.5 229,-687.5 "/>
<text text-anchor="middle" x="195" y="-672.3" font-family="Times,serif" font-size="14.00">output:</text>
<polyline fill="none" stroke="black" points="229,-664.5 229,-710.5 "/>
<text text-anchor="middle" x="302" y="-683.8" font-family="Times,serif" font-size="14.00">(None, 13, 13, 28)</text>
<polyline fill="none" stroke="black" points="375,-664.5 375,-710.5 "/>
<text text-anchor="middle" x="448" y="-683.8" font-family="Times,serif" font-size="14.00">(None, 13, 13, 28)</text>
</g>
<!-- 139740721552480&#45;&gt;139740721552192 -->
<g id="edge4" class="edge">
<title>139740721552480&#45;&gt;139740721552192</title>
<path fill="none" stroke="black" d="M260.5,-747.37C260.5,-739.15 260.5,-729.66 260.5,-720.73"/>
<polygon fill="black" stroke="black" points="264,-720.61 260.5,-710.61 257,-720.61 264,-720.61"/>
</g>
<!-- 139741193958736 -->
<g id="node6" class="node">
<title>139741193958736</title>
<polygon fill="none" stroke="black" points="39,-581.5 39,-627.5 482,-627.5 482,-581.5 39,-581.5"/>
<text text-anchor="middle" x="80.5" y="-612.3" font-family="Times,serif" font-size="14.00">conv2d_1</text>
<polyline fill="none" stroke="black" points="39,-604.5 122,-604.5 "/>
<text text-anchor="middle" x="80.5" y="-589.3" font-family="Times,serif" font-size="14.00">Conv2D</text>
<polyline fill="none" stroke="black" points="122,-581.5 122,-627.5 "/>
<text text-anchor="middle" x="156" y="-612.3" font-family="Times,serif" font-size="14.00">input:</text>
<polyline fill="none" stroke="black" points="122,-604.5 190,-604.5 "/>
<text text-anchor="middle" x="156" y="-589.3" font-family="Times,serif" font-size="14.00">output:</text>
<polyline fill="none" stroke="black" points="190,-581.5 190,-627.5 "/>
<text text-anchor="middle" x="263" y="-600.8" font-family="Times,serif" font-size="14.00">(None, 13, 13, 28)</text>
<polyline fill="none" stroke="black" points="336,-581.5 336,-627.5 "/>
<text text-anchor="middle" x="409" y="-600.8" font-family="Times,serif" font-size="14.00">(None, 11, 11, 28)</text>
</g>
<!-- 139740721552192&#45;&gt;139741193958736 -->
<g id="edge5" class="edge">
<title>139740721552192&#45;&gt;139741193958736</title>
<path fill="none" stroke="black" d="M260.5,-664.37C260.5,-656.15 260.5,-646.66 260.5,-637.73"/>
<polygon fill="black" stroke="black" points="264,-637.61 260.5,-627.61 257,-637.61 264,-637.61"/>
</g>
<!-- 139741626269360 -->
<g id="node7" class="node">
<title>139741626269360</title>
<polygon fill="none" stroke="black" points="19.5,-498.5 19.5,-544.5 501.5,-544.5 501.5,-498.5 19.5,-498.5"/>
<text text-anchor="middle" x="89.5" y="-529.3" font-family="Times,serif" font-size="14.00">max_pooling2d_1</text>
<polyline fill="none" stroke="black" points="19.5,-521.5 159.5,-521.5 "/>
<text text-anchor="middle" x="89.5" y="-506.3" font-family="Times,serif" font-size="14.00">MaxPooling2D</text>
<polyline fill="none" stroke="black" points="159.5,-498.5 159.5,-544.5 "/>
<text text-anchor="middle" x="193.5" y="-529.3" font-family="Times,serif" font-size="14.00">input:</text>
<polyline fill="none" stroke="black" points="159.5,-521.5 227.5,-521.5 "/>
<text text-anchor="middle" x="193.5" y="-506.3" font-family="Times,serif" font-size="14.00">output:</text>
<polyline fill="none" stroke="black" points="227.5,-498.5 227.5,-544.5 "/>
<text text-anchor="middle" x="300.5" y="-517.8" font-family="Times,serif" font-size="14.00">(None, 11, 11, 28)</text>
<polyline fill="none" stroke="black" points="373.5,-498.5 373.5,-544.5 "/>
<text text-anchor="middle" x="437.5" y="-517.8" font-family="Times,serif" font-size="14.00">(None, 5, 5, 28)</text>
</g>
<!-- 139741193958736&#45;&gt;139741626269360 -->
<g id="edge6" class="edge">
<title>139741193958736&#45;&gt;139741626269360</title>
<path fill="none" stroke="black" d="M260.5,-581.37C260.5,-573.15 260.5,-563.66 260.5,-554.73"/>
<polygon fill="black" stroke="black" points="264,-554.61 260.5,-544.61 257,-554.61 264,-554.61"/>
</g>
<!-- 139740721553824 -->
<g id="node8" class="node">
<title>139740721553824</title>
<polygon fill="none" stroke="black" points="10,-415.5 10,-461.5 511,-461.5 511,-415.5 10,-415.5"/>
<text text-anchor="middle" x="98.5" y="-446.3" font-family="Times,serif" font-size="14.00">batch_normalization_1</text>
<polyline fill="none" stroke="black" points="10,-438.5 187,-438.5 "/>
<text text-anchor="middle" x="98.5" y="-423.3" font-family="Times,serif" font-size="14.00">BatchNormalization</text>
<polyline fill="none" stroke="black" points="187,-415.5 187,-461.5 "/>
<text text-anchor="middle" x="221" y="-446.3" font-family="Times,serif" font-size="14.00">input:</text>
<polyline fill="none" stroke="black" points="187,-438.5 255,-438.5 "/>
<text text-anchor="middle" x="221" y="-423.3" font-family="Times,serif" font-size="14.00">output:</text>
<polyline fill="none" stroke="black" points="255,-415.5 255,-461.5 "/>
<text text-anchor="middle" x="319" y="-434.8" font-family="Times,serif" font-size="14.00">(None, 5, 5, 28)</text>
<polyline fill="none" stroke="black" points="383,-415.5 383,-461.5 "/>
<text text-anchor="middle" x="447" y="-434.8" font-family="Times,serif" font-size="14.00">(None, 5, 5, 28)</text>
</g>
<!-- 139741626269360&#45;&gt;139740721553824 -->
<g id="edge7" class="edge">
<title>139741626269360&#45;&gt;139740721553824</title>
<path fill="none" stroke="black" d="M260.5,-498.37C260.5,-490.15 260.5,-480.66 260.5,-471.73"/>
<polygon fill="black" stroke="black" points="264,-471.61 260.5,-461.61 257,-471.61 264,-471.61"/>
</g>
<!-- 139740721555264 -->
<g id="node9" class="node">
<title>139740721555264</title>
<polygon fill="none" stroke="black" points="78,-332.5 78,-378.5 443,-378.5 443,-332.5 78,-332.5"/>
<text text-anchor="middle" x="112" y="-363.3" font-family="Times,serif" font-size="14.00">flatten</text>
<polyline fill="none" stroke="black" points="78,-355.5 146,-355.5 "/>
<text text-anchor="middle" x="112" y="-340.3" font-family="Times,serif" font-size="14.00">Flatten</text>
<polyline fill="none" stroke="black" points="146,-332.5 146,-378.5 "/>
<text text-anchor="middle" x="180" y="-363.3" font-family="Times,serif" font-size="14.00">input:</text>
<polyline fill="none" stroke="black" points="146,-355.5 214,-355.5 "/>
<text text-anchor="middle" x="180" y="-340.3" font-family="Times,serif" font-size="14.00">output:</text>
<polyline fill="none" stroke="black" points="214,-332.5 214,-378.5 "/>
<text text-anchor="middle" x="278" y="-351.8" font-family="Times,serif" font-size="14.00">(None, 5, 5, 28)</text>
<polyline fill="none" stroke="black" points="342,-332.5 342,-378.5 "/>
<text text-anchor="middle" x="392.5" y="-351.8" font-family="Times,serif" font-size="14.00">(None, 700)</text>
</g>
<!-- 139740721553824&#45;&gt;139740721555264 -->
<g id="edge8" class="edge">
<title>139740721553824&#45;&gt;139740721555264</title>
<path fill="none" stroke="black" d="M260.5,-415.37C260.5,-407.15 260.5,-397.66 260.5,-388.73"/>
<polygon fill="black" stroke="black" points="264,-388.61 260.5,-378.61 257,-388.61 264,-388.61"/>
</g>
<!-- 139740721555984 -->
<g id="node10" class="node">
<title>139740721555984</title>
<polygon fill="none" stroke="black" points="95,-249.5 95,-295.5 426,-295.5 426,-249.5 95,-249.5"/>
<text text-anchor="middle" x="125.5" y="-280.3" font-family="Times,serif" font-size="14.00">dense</text>
<polyline fill="none" stroke="black" points="95,-272.5 156,-272.5 "/>
<text text-anchor="middle" x="125.5" y="-257.3" font-family="Times,serif" font-size="14.00">Dense</text>
<polyline fill="none" stroke="black" points="156,-249.5 156,-295.5 "/>
<text text-anchor="middle" x="190" y="-280.3" font-family="Times,serif" font-size="14.00">input:</text>
<polyline fill="none" stroke="black" points="156,-272.5 224,-272.5 "/>
<text text-anchor="middle" x="190" y="-257.3" font-family="Times,serif" font-size="14.00">output:</text>
<polyline fill="none" stroke="black" points="224,-249.5 224,-295.5 "/>
<text text-anchor="middle" x="274.5" y="-268.8" font-family="Times,serif" font-size="14.00">(None, 700)</text>
<polyline fill="none" stroke="black" points="325,-249.5 325,-295.5 "/>
<text text-anchor="middle" x="375.5" y="-268.8" font-family="Times,serif" font-size="14.00">(None, 128)</text>
</g>
<!-- 139740721555264&#45;&gt;139740721555984 -->
<g id="edge9" class="edge">
<title>139740721555264&#45;&gt;139740721555984</title>
<path fill="none" stroke="black" d="M260.5,-332.37C260.5,-324.15 260.5,-314.66 260.5,-305.73"/>
<polygon fill="black" stroke="black" points="264,-305.61 260.5,-295.61 257,-305.61 264,-305.61"/>
</g>
<!-- 139740721556608 -->
<g id="node11" class="node">
<title>139740721556608</title>
<polygon fill="none" stroke="black" points="88.5,-166.5 88.5,-212.5 432.5,-212.5 432.5,-166.5 88.5,-166.5"/>
<text text-anchor="middle" x="125.5" y="-197.3" font-family="Times,serif" font-size="14.00">dense_1</text>
<polyline fill="none" stroke="black" points="88.5,-189.5 162.5,-189.5 "/>
<text text-anchor="middle" x="125.5" y="-174.3" font-family="Times,serif" font-size="14.00">Dense</text>
<polyline fill="none" stroke="black" points="162.5,-166.5 162.5,-212.5 "/>
<text text-anchor="middle" x="196.5" y="-197.3" font-family="Times,serif" font-size="14.00">input:</text>
<polyline fill="none" stroke="black" points="162.5,-189.5 230.5,-189.5 "/>
<text text-anchor="middle" x="196.5" y="-174.3" font-family="Times,serif" font-size="14.00">output:</text>
<polyline fill="none" stroke="black" points="230.5,-166.5 230.5,-212.5 "/>
<text text-anchor="middle" x="281" y="-185.8" font-family="Times,serif" font-size="14.00">(None, 128)</text>
<polyline fill="none" stroke="black" points="331.5,-166.5 331.5,-212.5 "/>
<text text-anchor="middle" x="382" y="-185.8" font-family="Times,serif" font-size="14.00">(None, 128)</text>
</g>
<!-- 139740721555984&#45;&gt;139740721556608 -->
<g id="edge10" class="edge">
<title>139740721555984&#45;&gt;139740721556608</title>
<path fill="none" stroke="black" d="M260.5,-249.37C260.5,-241.15 260.5,-231.66 260.5,-222.73"/>
<polygon fill="black" stroke="black" points="264,-222.61 260.5,-212.61 257,-222.61 264,-222.61"/>
</g>
<!-- 139740721557328 -->
<g id="node12" class="node">
<title>139740721557328</title>
<polygon fill="none" stroke="black" points="88.5,-83.5 88.5,-129.5 432.5,-129.5 432.5,-83.5 88.5,-83.5"/>
<text text-anchor="middle" x="125.5" y="-114.3" font-family="Times,serif" font-size="14.00">dense_2</text>
<polyline fill="none" stroke="black" points="88.5,-106.5 162.5,-106.5 "/>
<text text-anchor="middle" x="125.5" y="-91.3" font-family="Times,serif" font-size="14.00">Dense</text>
<polyline fill="none" stroke="black" points="162.5,-83.5 162.5,-129.5 "/>
<text text-anchor="middle" x="196.5" y="-114.3" font-family="Times,serif" font-size="14.00">input:</text>
<polyline fill="none" stroke="black" points="162.5,-106.5 230.5,-106.5 "/>
<text text-anchor="middle" x="196.5" y="-91.3" font-family="Times,serif" font-size="14.00">output:</text>
<polyline fill="none" stroke="black" points="230.5,-83.5 230.5,-129.5 "/>
<text text-anchor="middle" x="281" y="-102.8" font-family="Times,serif" font-size="14.00">(None, 128)</text>
<polyline fill="none" stroke="black" points="331.5,-83.5 331.5,-129.5 "/>
<text text-anchor="middle" x="382" y="-102.8" font-family="Times,serif" font-size="14.00">(None, 128)</text>
</g>
<!-- 139740721556608&#45;&gt;139740721557328 -->
<g id="edge11" class="edge">
<title>139740721556608&#45;&gt;139740721557328</title>
<path fill="none" stroke="black" d="M260.5,-166.37C260.5,-158.15 260.5,-148.66 260.5,-139.73"/>
<polygon fill="black" stroke="black" points="264,-139.61 260.5,-129.61 257,-139.61 264,-139.61"/>
</g>
<!-- 139740721558048 -->
<g id="node13" class="node">
<title>139740721558048</title>
<polygon fill="none" stroke="black" points="93,-0.5 93,-46.5 428,-46.5 428,-0.5 93,-0.5"/>
<text text-anchor="middle" x="130" y="-31.3" font-family="Times,serif" font-size="14.00">dense_3</text>
<polyline fill="none" stroke="black" points="93,-23.5 167,-23.5 "/>
<text text-anchor="middle" x="130" y="-8.3" font-family="Times,serif" font-size="14.00">Dense</text>
<polyline fill="none" stroke="black" points="167,-0.5 167,-46.5 "/>
<text text-anchor="middle" x="201" y="-31.3" font-family="Times,serif" font-size="14.00">input:</text>
<polyline fill="none" stroke="black" points="167,-23.5 235,-23.5 "/>
<text text-anchor="middle" x="201" y="-8.3" font-family="Times,serif" font-size="14.00">output:</text>
<polyline fill="none" stroke="black" points="235,-0.5 235,-46.5 "/>
<text text-anchor="middle" x="285.5" y="-19.8" font-family="Times,serif" font-size="14.00">(None, 128)</text>
<polyline fill="none" stroke="black" points="336,-0.5 336,-46.5 "/>
<text text-anchor="middle" x="382" y="-19.8" font-family="Times,serif" font-size="14.00">(None, 10)</text>
</g>
<!-- 139740721557328&#45;&gt;139740721558048 -->
<g id="edge12" class="edge">
<title>139740721557328&#45;&gt;139740721558048</title>
<path fill="none" stroke="black" d="M260.5,-83.37C260.5,-75.15 260.5,-65.66 260.5,-56.73"/>
<polygon fill="black" stroke="black" points="264,-56.61 260.5,-46.61 257,-56.61 264,-56.61"/>
</g>
</g>
</svg>
