<?xml version="1.0" encoding="UTF-8" standalone="no"?>
<!DOCTYPE svg PUBLIC "-//W3C//DTD SVG 1.1//EN"
 "http://www.w3.org/Graphics/SVG/1.1/DTD/svg11.dtd">
<!-- Generated by graphviz version 3.0.0 (0)
 -->
<!-- Title: G Pages: 1 -->
<svg width="751pt" height="1733pt"
 viewBox="0.00 0.00 563.00 1300.00" xmlns="http://www.w3.org/2000/svg" xmlns:xlink="http://www.w3.org/1999/xlink">
<g id="graph0" class="graph" transform="scale(1.33333 1.33333) rotate(0) translate(4 1296)">
<title>G</title>
<polygon fill="white" stroke="transparent" points="-4,4 -4,-1296 559,-1296 559,4 -4,4"/>
<!-- 140016472428544 -->
<g id="node1" class="node">
<title>140016472428544</title>
<polygon fill="none" stroke="black" points="21,-1245.5 21,-1291.5 534,-1291.5 534,-1245.5 21,-1245.5"/>
<text text-anchor="middle" x="96.5" y="-1276.3" font-family="Times,serif" font-size="14.00">rescaling_91_input</text>
<polyline fill="none" stroke="black" points="21,-1268.5 172,-1268.5 "/>
<text text-anchor="middle" x="96.5" y="-1253.3" font-family="Times,serif" font-size="14.00">InputLayer</text>
<polyline fill="none" stroke="black" points="172,-1245.5 172,-1291.5 "/>
<text text-anchor="middle" x="206" y="-1276.3" font-family="Times,serif" font-size="14.00">input:</text>
<polyline fill="none" stroke="black" points="172,-1268.5 240,-1268.5 "/>
<text text-anchor="middle" x="206" y="-1253.3" font-family="Times,serif" font-size="14.00">output:</text>
<polyline fill="none" stroke="black" points="240,-1245.5 240,-1291.5 "/>
<text text-anchor="middle" x="313.5" y="-1264.8" font-family="Times,serif" font-size="14.00">[(None, 28, 28, 1)]</text>
<polyline fill="none" stroke="black" points="387,-1245.5 387,-1291.5 "/>
<text text-anchor="middle" x="460.5" y="-1264.8" font-family="Times,serif" font-size="14.00">[(None, 28, 28, 1)]</text>
</g>
<!-- 140016087023680 -->
<g id="node2" class="node">
<title>140016087023680</title>
<polygon fill="none" stroke="black" points="53,-1162.5 53,-1208.5 502,-1208.5 502,-1162.5 53,-1162.5"/>
<text text-anchor="middle" x="106.5" y="-1193.3" font-family="Times,serif" font-size="14.00">rescaling_91</text>
<polyline fill="none" stroke="black" points="53,-1185.5 160,-1185.5 "/>
<text text-anchor="middle" x="106.5" y="-1170.3" font-family="Times,serif" font-size="14.00">Rescaling</text>
<polyline fill="none" stroke="black" points="160,-1162.5 160,-1208.5 "/>
<text text-anchor="middle" x="194" y="-1193.3" font-family="Times,serif" font-size="14.00">input:</text>
<polyline fill="none" stroke="black" points="160,-1185.5 228,-1185.5 "/>
<text text-anchor="middle" x="194" y="-1170.3" font-family="Times,serif" font-size="14.00">output:</text>
<polyline fill="none" stroke="black" points="228,-1162.5 228,-1208.5 "/>
<text text-anchor="middle" x="296.5" y="-1181.8" font-family="Times,serif" font-size="14.00">(None, 28, 28, 1)</text>
<polyline fill="none" stroke="black" points="365,-1162.5 365,-1208.5 "/>
<text text-anchor="middle" x="433.5" y="-1181.8" font-family="Times,serif" font-size="14.00">(None, 28, 28, 1)</text>
</g>
<!-- 140016472428544&#45;&gt;140016087023680 -->
<g id="edge1" class="edge">
<title>140016472428544&#45;&gt;140016087023680</title>
<path fill="none" stroke="black" d="M277.5,-1245.37C277.5,-1237.15 277.5,-1227.66 277.5,-1218.73"/>
<polygon fill="black" stroke="black" points="281,-1218.61 277.5,-1208.61 274,-1218.61 281,-1218.61"/>
</g>
<!-- 140016087084928 -->
<g id="node3" class="node">
<title>140016087084928</title>
<polygon fill="none" stroke="black" points="51.5,-1079.5 51.5,-1125.5 503.5,-1125.5 503.5,-1079.5 51.5,-1079.5"/>
<text text-anchor="middle" x="102" y="-1110.3" font-family="Times,serif" font-size="14.00">conv2d_182</text>
<polyline fill="none" stroke="black" points="51.5,-1102.5 152.5,-1102.5 "/>
<text text-anchor="middle" x="102" y="-1087.3" font-family="Times,serif" font-size="14.00">Conv2D</text>
<polyline fill="none" stroke="black" points="152.5,-1079.5 152.5,-1125.5 "/>
<text text-anchor="middle" x="186.5" y="-1110.3" font-family="Times,serif" font-size="14.00">input:</text>
<polyline fill="none" stroke="black" points="152.5,-1102.5 220.5,-1102.5 "/>
<text text-anchor="middle" x="186.5" y="-1087.3" font-family="Times,serif" font-size="14.00">output:</text>
<polyline fill="none" stroke="black" points="220.5,-1079.5 220.5,-1125.5 "/>
<text text-anchor="middle" x="289" y="-1098.8" font-family="Times,serif" font-size="14.00">(None, 28, 28, 1)</text>
<polyline fill="none" stroke="black" points="357.5,-1079.5 357.5,-1125.5 "/>
<text text-anchor="middle" x="430.5" y="-1098.8" font-family="Times,serif" font-size="14.00">(None, 26, 26, 28)</text>
</g>
<!-- 140016087023680&#45;&gt;140016087084928 -->
<g id="edge2" class="edge">
<title>140016087023680&#45;&gt;140016087084928</title>
<path fill="none" stroke="black" d="M277.5,-1162.37C277.5,-1154.15 277.5,-1144.66 277.5,-1135.73"/>
<polygon fill="black" stroke="black" points="281,-1135.61 277.5,-1125.61 274,-1135.61 281,-1135.61"/>
</g>
<!-- 140016087085264 -->
<g id="node4" class="node">
<title>140016087085264</title>
<polygon fill="none" stroke="black" points="18.5,-996.5 18.5,-1042.5 536.5,-1042.5 536.5,-996.5 18.5,-996.5"/>
<text text-anchor="middle" x="97.5" y="-1027.3" font-family="Times,serif" font-size="14.00">max_pooling2d_182</text>
<polyline fill="none" stroke="black" points="18.5,-1019.5 176.5,-1019.5 "/>
<text text-anchor="middle" x="97.5" y="-1004.3" font-family="Times,serif" font-size="14.00">MaxPooling2D</text>
<polyline fill="none" stroke="black" points="176.5,-996.5 176.5,-1042.5 "/>
<text text-anchor="middle" x="210.5" y="-1027.3" font-family="Times,serif" font-size="14.00">input:</text>
<polyline fill="none" stroke="black" points="176.5,-1019.5 244.5,-1019.5 "/>
<text text-anchor="middle" x="210.5" y="-1004.3" font-family="Times,serif" font-size="14.00">output:</text>
<polyline fill="none" stroke="black" points="244.5,-996.5 244.5,-1042.5 "/>
<text text-anchor="middle" x="317.5" y="-1015.8" font-family="Times,serif" font-size="14.00">(None, 26, 26, 28)</text>
<polyline fill="none" stroke="black" points="390.5,-996.5 390.5,-1042.5 "/>
<text text-anchor="middle" x="463.5" y="-1015.8" font-family="Times,serif" font-size="14.00">(None, 13, 13, 28)</text>
</g>
<!-- 140016087084928&#45;&gt;140016087085264 -->
<g id="edge3" class="edge">
<title>140016087084928&#45;&gt;140016087085264</title>
<path fill="none" stroke="black" d="M277.5,-1079.37C277.5,-1071.15 277.5,-1061.66 277.5,-1052.73"/>
<polygon fill="black" stroke="black" points="281,-1052.61 277.5,-1042.61 274,-1052.61 281,-1052.61"/>
</g>
<!-- 140016089426304 -->
<g id="node5" class="node">
<title>140016089426304</title>
<polygon fill="none" stroke="black" points="0,-913.5 0,-959.5 555,-959.5 555,-913.5 0,-913.5"/>
<text text-anchor="middle" x="97.5" y="-944.3" font-family="Times,serif" font-size="14.00">batch_normalization_455</text>
<polyline fill="none" stroke="black" points="0,-936.5 195,-936.5 "/>
<text text-anchor="middle" x="97.5" y="-921.3" font-family="Times,serif" font-size="14.00">BatchNormalization</text>
<polyline fill="none" stroke="black" points="195,-913.5 195,-959.5 "/>
<text text-anchor="middle" x="229" y="-944.3" font-family="Times,serif" font-size="14.00">input:</text>
<polyline fill="none" stroke="black" points="195,-936.5 263,-936.5 "/>
<text text-anchor="middle" x="229" y="-921.3" font-family="Times,serif" font-size="14.00">output:</text>
<polyline fill="none" stroke="black" points="263,-913.5 263,-959.5 "/>
<text text-anchor="middle" x="336" y="-932.8" font-family="Times,serif" font-size="14.00">(None, 13, 13, 28)</text>
<polyline fill="none" stroke="black" points="409,-913.5 409,-959.5 "/>
<text text-anchor="middle" x="482" y="-932.8" font-family="Times,serif" font-size="14.00">(None, 13, 13, 28)</text>
</g>
<!-- 140016087085264&#45;&gt;140016089426304 -->
<g id="edge4" class="edge">
<title>140016087085264&#45;&gt;140016089426304</title>
<path fill="none" stroke="black" d="M277.5,-996.37C277.5,-988.15 277.5,-978.66 277.5,-969.73"/>
<polygon fill="black" stroke="black" points="281,-969.61 277.5,-959.61 274,-969.61 281,-969.61"/>
</g>
<!-- 140016089428080 -->
<g id="node6" class="node">
<title>140016089428080</title>
<polygon fill="none" stroke="black" points="47,-830.5 47,-876.5 508,-876.5 508,-830.5 47,-830.5"/>
<text text-anchor="middle" x="97.5" y="-861.3" font-family="Times,serif" font-size="14.00">conv2d_183</text>
<polyline fill="none" stroke="black" points="47,-853.5 148,-853.5 "/>
<text text-anchor="middle" x="97.5" y="-838.3" font-family="Times,serif" font-size="14.00">Conv2D</text>
<polyline fill="none" stroke="black" points="148,-830.5 148,-876.5 "/>
<text text-anchor="middle" x="182" y="-861.3" font-family="Times,serif" font-size="14.00">input:</text>
<polyline fill="none" stroke="black" points="148,-853.5 216,-853.5 "/>
<text text-anchor="middle" x="182" y="-838.3" font-family="Times,serif" font-size="14.00">output:</text>
<polyline fill="none" stroke="black" points="216,-830.5 216,-876.5 "/>
<text text-anchor="middle" x="289" y="-849.8" font-family="Times,serif" font-size="14.00">(None, 13, 13, 28)</text>
<polyline fill="none" stroke="black" points="362,-830.5 362,-876.5 "/>
<text text-anchor="middle" x="435" y="-849.8" font-family="Times,serif" font-size="14.00">(None, 11, 11, 28)</text>
</g>
<!-- 140016089426304&#45;&gt;140016089428080 -->
<g id="edge5" class="edge">
<title>140016089426304&#45;&gt;140016089428080</title>
<path fill="none" stroke="black" d="M277.5,-913.37C277.5,-905.15 277.5,-895.66 277.5,-886.73"/>
<polygon fill="black" stroke="black" points="281,-886.61 277.5,-876.61 274,-886.61 281,-886.61"/>
</g>
<!-- 140016089879440 -->
<g id="node7" class="node">
<title>140016089879440</title>
<polygon fill="none" stroke="black" points="27.5,-747.5 27.5,-793.5 527.5,-793.5 527.5,-747.5 27.5,-747.5"/>
<text text-anchor="middle" x="106.5" y="-778.3" font-family="Times,serif" font-size="14.00">max_pooling2d_183</text>
<polyline fill="none" stroke="black" points="27.5,-770.5 185.5,-770.5 "/>
<text text-anchor="middle" x="106.5" y="-755.3" font-family="Times,serif" font-size="14.00">MaxPooling2D</text>
<polyline fill="none" stroke="black" points="185.5,-747.5 185.5,-793.5 "/>
<text text-anchor="middle" x="219.5" y="-778.3" font-family="Times,serif" font-size="14.00">input:</text>
<polyline fill="none" stroke="black" points="185.5,-770.5 253.5,-770.5 "/>
<text text-anchor="middle" x="219.5" y="-755.3" font-family="Times,serif" font-size="14.00">output:</text>
<polyline fill="none" stroke="black" points="253.5,-747.5 253.5,-793.5 "/>
<text text-anchor="middle" x="326.5" y="-766.8" font-family="Times,serif" font-size="14.00">(None, 11, 11, 28)</text>
<polyline fill="none" stroke="black" points="399.5,-747.5 399.5,-793.5 "/>
<text text-anchor="middle" x="463.5" y="-766.8" font-family="Times,serif" font-size="14.00">(None, 5, 5, 28)</text>
</g>
<!-- 140016089428080&#45;&gt;140016089879440 -->
<g id="edge6" class="edge">
<title>140016089428080&#45;&gt;140016089879440</title>
<path fill="none" stroke="black" d="M277.5,-830.37C277.5,-822.15 277.5,-812.66 277.5,-803.73"/>
<polygon fill="black" stroke="black" points="281,-803.61 277.5,-793.61 274,-803.61 281,-803.61"/>
</g>
<!-- 140016085147440 -->
<g id="node8" class="node">
<title>140016085147440</title>
<polygon fill="none" stroke="black" points="18,-664.5 18,-710.5 537,-710.5 537,-664.5 18,-664.5"/>
<text text-anchor="middle" x="115.5" y="-695.3" font-family="Times,serif" font-size="14.00">batch_normalization_456</text>
<polyline fill="none" stroke="black" points="18,-687.5 213,-687.5 "/>
<text text-anchor="middle" x="115.5" y="-672.3" font-family="Times,serif" font-size="14.00">BatchNormalization</text>
<polyline fill="none" stroke="black" points="213,-664.5 213,-710.5 "/>
<text text-anchor="middle" x="247" y="-695.3" font-family="Times,serif" font-size="14.00">input:</text>
<polyline fill="none" stroke="black" points="213,-687.5 281,-687.5 "/>
<text text-anchor="middle" x="247" y="-672.3" font-family="Times,serif" font-size="14.00">output:</text>
<polyline fill="none" stroke="black" points="281,-664.5 281,-710.5 "/>
<text text-anchor="middle" x="345" y="-683.8" font-family="Times,serif" font-size="14.00">(None, 5, 5, 28)</text>
<polyline fill="none" stroke="black" points="409,-664.5 409,-710.5 "/>
<text text-anchor="middle" x="473" y="-683.8" font-family="Times,serif" font-size="14.00">(None, 5, 5, 28)</text>
</g>
<!-- 140016089879440&#45;&gt;140016085147440 -->
<g id="edge7" class="edge">
<title>140016089879440&#45;&gt;140016085147440</title>
<path fill="none" stroke="black" d="M277.5,-747.37C277.5,-739.15 277.5,-729.66 277.5,-720.73"/>
<polygon fill="black" stroke="black" points="281,-720.61 277.5,-710.61 274,-720.61 281,-720.61"/>
</g>
<!-- 140007057895248 -->
<g id="node9" class="node">
<title>140007057895248</title>
<polygon fill="none" stroke="black" points="85,-581.5 85,-627.5 470,-627.5 470,-581.5 85,-581.5"/>
<text text-anchor="middle" x="129" y="-612.3" font-family="Times,serif" font-size="14.00">flatten_91</text>
<polyline fill="none" stroke="black" points="85,-604.5 173,-604.5 "/>
<text text-anchor="middle" x="129" y="-589.3" font-family="Times,serif" font-size="14.00">Flatten</text>
<polyline fill="none" stroke="black" points="173,-581.5 173,-627.5 "/>
<text text-anchor="middle" x="207" y="-612.3" font-family="Times,serif" font-size="14.00">input:</text>
<polyline fill="none" stroke="black" points="173,-604.5 241,-604.5 "/>
<text text-anchor="middle" x="207" y="-589.3" font-family="Times,serif" font-size="14.00">output:</text>
<polyline fill="none" stroke="black" points="241,-581.5 241,-627.5 "/>
<text text-anchor="middle" x="305" y="-600.8" font-family="Times,serif" font-size="14.00">(None, 5, 5, 28)</text>
<polyline fill="none" stroke="black" points="369,-581.5 369,-627.5 "/>
<text text-anchor="middle" x="419.5" y="-600.8" font-family="Times,serif" font-size="14.00">(None, 700)</text>
</g>
<!-- 140016085147440&#45;&gt;140007057895248 -->
<g id="edge8" class="edge">
<title>140016085147440&#45;&gt;140007057895248</title>
<path fill="none" stroke="black" d="M277.5,-664.37C277.5,-656.15 277.5,-646.66 277.5,-637.73"/>
<polygon fill="black" stroke="black" points="281,-637.61 277.5,-627.61 274,-637.61 281,-637.61"/>
</g>
<!-- 140016085147344 -->
<g id="node10" class="node">
<title>140016085147344</title>
<polygon fill="none" stroke="black" points="96.5,-498.5 96.5,-544.5 458.5,-544.5 458.5,-498.5 96.5,-498.5"/>
<text text-anchor="middle" x="142.5" y="-529.3" font-family="Times,serif" font-size="14.00">dense_364</text>
<polyline fill="none" stroke="black" points="96.5,-521.5 188.5,-521.5 "/>
<text text-anchor="middle" x="142.5" y="-506.3" font-family="Times,serif" font-size="14.00">Dense</text>
<polyline fill="none" stroke="black" points="188.5,-498.5 188.5,-544.5 "/>
<text text-anchor="middle" x="222.5" y="-529.3" font-family="Times,serif" font-size="14.00">input:</text>
<polyline fill="none" stroke="black" points="188.5,-521.5 256.5,-521.5 "/>
<text text-anchor="middle" x="222.5" y="-506.3" font-family="Times,serif" font-size="14.00">output:</text>
<polyline fill="none" stroke="black" points="256.5,-498.5 256.5,-544.5 "/>
<text text-anchor="middle" x="307" y="-517.8" font-family="Times,serif" font-size="14.00">(None, 700)</text>
<polyline fill="none" stroke="black" points="357.5,-498.5 357.5,-544.5 "/>
<text text-anchor="middle" x="408" y="-517.8" font-family="Times,serif" font-size="14.00">(None, 100)</text>
</g>
<!-- 140007057895248&#45;&gt;140016085147344 -->
<g id="edge9" class="edge">
<title>140007057895248&#45;&gt;140016085147344</title>
<path fill="none" stroke="black" d="M277.5,-581.37C277.5,-573.15 277.5,-563.66 277.5,-554.73"/>
<polygon fill="black" stroke="black" points="281,-554.61 277.5,-544.61 274,-554.61 281,-554.61"/>
</g>
<!-- 140016085140864 -->
<g id="node11" class="node">
<title>140016085140864</title>
<polygon fill="none" stroke="black" points="45,-415.5 45,-461.5 510,-461.5 510,-415.5 45,-415.5"/>
<text text-anchor="middle" x="142.5" y="-446.3" font-family="Times,serif" font-size="14.00">batch_normalization_457</text>
<polyline fill="none" stroke="black" points="45,-438.5 240,-438.5 "/>
<text text-anchor="middle" x="142.5" y="-423.3" font-family="Times,serif" font-size="14.00">BatchNormalization</text>
<polyline fill="none" stroke="black" points="240,-415.5 240,-461.5 "/>
<text text-anchor="middle" x="274" y="-446.3" font-family="Times,serif" font-size="14.00">input:</text>
<polyline fill="none" stroke="black" points="240,-438.5 308,-438.5 "/>
<text text-anchor="middle" x="274" y="-423.3" font-family="Times,serif" font-size="14.00">output:</text>
<polyline fill="none" stroke="black" points="308,-415.5 308,-461.5 "/>
<text text-anchor="middle" x="358.5" y="-434.8" font-family="Times,serif" font-size="14.00">(None, 100)</text>
<polyline fill="none" stroke="black" points="409,-415.5 409,-461.5 "/>
<text text-anchor="middle" x="459.5" y="-434.8" font-family="Times,serif" font-size="14.00">(None, 100)</text>
</g>
<!-- 140016085147344&#45;&gt;140016085140864 -->
<g id="edge10" class="edge">
<title>140016085147344&#45;&gt;140016085140864</title>
<path fill="none" stroke="black" d="M277.5,-498.37C277.5,-490.15 277.5,-480.66 277.5,-471.73"/>
<polygon fill="black" stroke="black" points="281,-471.61 277.5,-461.61 274,-471.61 281,-471.61"/>
</g>
<!-- 140016087024400 -->
<g id="node12" class="node">
<title>140016087024400</title>
<polygon fill="none" stroke="black" points="101,-332.5 101,-378.5 454,-378.5 454,-332.5 101,-332.5"/>
<text text-anchor="middle" x="147" y="-363.3" font-family="Times,serif" font-size="14.00">dense_365</text>
<polyline fill="none" stroke="black" points="101,-355.5 193,-355.5 "/>
<text text-anchor="middle" x="147" y="-340.3" font-family="Times,serif" font-size="14.00">Dense</text>
<polyline fill="none" stroke="black" points="193,-332.5 193,-378.5 "/>
<text text-anchor="middle" x="227" y="-363.3" font-family="Times,serif" font-size="14.00">input:</text>
<polyline fill="none" stroke="black" points="193,-355.5 261,-355.5 "/>
<text text-anchor="middle" x="227" y="-340.3" font-family="Times,serif" font-size="14.00">output:</text>
<polyline fill="none" stroke="black" points="261,-332.5 261,-378.5 "/>
<text text-anchor="middle" x="311.5" y="-351.8" font-family="Times,serif" font-size="14.00">(None, 100)</text>
<polyline fill="none" stroke="black" points="362,-332.5 362,-378.5 "/>
<text text-anchor="middle" x="408" y="-351.8" font-family="Times,serif" font-size="14.00">(None, 60)</text>
</g>
<!-- 140016085140864&#45;&gt;140016087024400 -->
<g id="edge11" class="edge">
<title>140016085140864&#45;&gt;140016087024400</title>
<path fill="none" stroke="black" d="M277.5,-415.37C277.5,-407.15 277.5,-397.66 277.5,-388.73"/>
<polygon fill="black" stroke="black" points="281,-388.61 277.5,-378.61 274,-388.61 281,-388.61"/>
</g>
<!-- 140016944649920 -->
<g id="node13" class="node">
<title>140016944649920</title>
<polygon fill="none" stroke="black" points="54,-249.5 54,-295.5 501,-295.5 501,-249.5 54,-249.5"/>
<text text-anchor="middle" x="151.5" y="-280.3" font-family="Times,serif" font-size="14.00">batch_normalization_458</text>
<polyline fill="none" stroke="black" points="54,-272.5 249,-272.5 "/>
<text text-anchor="middle" x="151.5" y="-257.3" font-family="Times,serif" font-size="14.00">BatchNormalization</text>
<polyline fill="none" stroke="black" points="249,-249.5 249,-295.5 "/>
<text text-anchor="middle" x="283" y="-280.3" font-family="Times,serif" font-size="14.00">input:</text>
<polyline fill="none" stroke="black" points="249,-272.5 317,-272.5 "/>
<text text-anchor="middle" x="283" y="-257.3" font-family="Times,serif" font-size="14.00">output:</text>
<polyline fill="none" stroke="black" points="317,-249.5 317,-295.5 "/>
<text text-anchor="middle" x="363" y="-268.8" font-family="Times,serif" font-size="14.00">(None, 60)</text>
<polyline fill="none" stroke="black" points="409,-249.5 409,-295.5 "/>
<text text-anchor="middle" x="455" y="-268.8" font-family="Times,serif" font-size="14.00">(None, 60)</text>
</g>
<!-- 140016087024400&#45;&gt;140016944649920 -->
<g id="edge12" class="edge">
<title>140016087024400&#45;&gt;140016944649920</title>
<path fill="none" stroke="black" d="M277.5,-332.37C277.5,-324.15 277.5,-314.66 277.5,-305.73"/>
<polygon fill="black" stroke="black" points="281,-305.61 277.5,-295.61 274,-305.61 281,-305.61"/>
</g>
<!-- 140016944654096 -->
<g id="node14" class="node">
<title>140016944654096</title>
<polygon fill="none" stroke="black" points="101,-166.5 101,-212.5 454,-212.5 454,-166.5 101,-166.5"/>
<text text-anchor="middle" x="147" y="-197.3" font-family="Times,serif" font-size="14.00">dense_366</text>
<polyline fill="none" stroke="black" points="101,-189.5 193,-189.5 "/>
<text text-anchor="middle" x="147" y="-174.3" font-family="Times,serif" font-size="14.00">Dense</text>
<polyline fill="none" stroke="black" points="193,-166.5 193,-212.5 "/>
<text text-anchor="middle" x="227" y="-197.3" font-family="Times,serif" font-size="14.00">input:</text>
<polyline fill="none" stroke="black" points="193,-189.5 261,-189.5 "/>
<text text-anchor="middle" x="227" y="-174.3" font-family="Times,serif" font-size="14.00">output:</text>
<polyline fill="none" stroke="black" points="261,-166.5 261,-212.5 "/>
<text text-anchor="middle" x="307" y="-185.8" font-family="Times,serif" font-size="14.00">(None, 60)</text>
<polyline fill="none" stroke="black" points="353,-166.5 353,-212.5 "/>
<text text-anchor="middle" x="403.5" y="-185.8" font-family="Times,serif" font-size="14.00">(None, 100)</text>
</g>
<!-- 140016944649920&#45;&gt;140016944654096 -->
<g id="edge13" class="edge">
<title>140016944649920&#45;&gt;140016944654096</title>
<path fill="none" stroke="black" d="M277.5,-249.37C277.5,-241.15 277.5,-231.66 277.5,-222.73"/>
<polygon fill="black" stroke="black" points="281,-222.61 277.5,-212.61 274,-222.61 281,-222.61"/>
</g>
<!-- 140016087029056 -->
<g id="node15" class="node">
<title>140016087029056</title>
<polygon fill="none" stroke="black" points="45,-83.5 45,-129.5 510,-129.5 510,-83.5 45,-83.5"/>
<text text-anchor="middle" x="142.5" y="-114.3" font-family="Times,serif" font-size="14.00">batch_normalization_459</text>
<polyline fill="none" stroke="black" points="45,-106.5 240,-106.5 "/>
<text text-anchor="middle" x="142.5" y="-91.3" font-family="Times,serif" font-size="14.00">BatchNormalization</text>
<polyline fill="none" stroke="black" points="240,-83.5 240,-129.5 "/>
<text text-anchor="middle" x="274" y="-114.3" font-family="Times,serif" font-size="14.00">input:</text>
<polyline fill="none" stroke="black" points="240,-106.5 308,-106.5 "/>
<text text-anchor="middle" x="274" y="-91.3" font-family="Times,serif" font-size="14.00">output:</text>
<polyline fill="none" stroke="black" points="308,-83.5 308,-129.5 "/>
<text text-anchor="middle" x="358.5" y="-102.8" font-family="Times,serif" font-size="14.00">(None, 100)</text>
<polyline fill="none" stroke="black" points="409,-83.5 409,-129.5 "/>
<text text-anchor="middle" x="459.5" y="-102.8" font-family="Times,serif" font-size="14.00">(None, 100)</text>
</g>
<!-- 140016944654096&#45;&gt;140016087029056 -->
<g id="edge14" class="edge">
<title>140016944654096&#45;&gt;140016087029056</title>
<path fill="none" stroke="black" d="M277.5,-166.37C277.5,-158.15 277.5,-148.66 277.5,-139.73"/>
<polygon fill="black" stroke="black" points="281,-139.61 277.5,-129.61 274,-139.61 281,-139.61"/>
</g>
<!-- 140016944652224 -->
<g id="node16" class="node">
<title>140016944652224</title>
<polygon fill="none" stroke="black" points="101,-0.5 101,-46.5 454,-46.5 454,-0.5 101,-0.5"/>
<text text-anchor="middle" x="147" y="-31.3" font-family="Times,serif" font-size="14.00">dense_367</text>
<polyline fill="none" stroke="black" points="101,-23.5 193,-23.5 "/>
<text text-anchor="middle" x="147" y="-8.3" font-family="Times,serif" font-size="14.00">Dense</text>
<polyline fill="none" stroke="black" points="193,-0.5 193,-46.5 "/>
<text text-anchor="middle" x="227" y="-31.3" font-family="Times,serif" font-size="14.00">input:</text>
<polyline fill="none" stroke="black" points="193,-23.5 261,-23.5 "/>
<text text-anchor="middle" x="227" y="-8.3" font-family="Times,serif" font-size="14.00">output:</text>
<polyline fill="none" stroke="black" points="261,-0.5 261,-46.5 "/>
<text text-anchor="middle" x="311.5" y="-19.8" font-family="Times,serif" font-size="14.00">(None, 100)</text>
<polyline fill="none" stroke="black" points="362,-0.5 362,-46.5 "/>
<text text-anchor="middle" x="408" y="-19.8" font-family="Times,serif" font-size="14.00">(None, 10)</text>
</g>
<!-- 140016087029056&#45;&gt;140016944652224 -->
<g id="edge15" class="edge">
<title>140016087029056&#45;&gt;140016944652224</title>
<path fill="none" stroke="black" d="M277.5,-83.37C277.5,-75.15 277.5,-65.66 277.5,-56.73"/>
<polygon fill="black" stroke="black" points="281,-56.61 277.5,-46.61 274,-56.61 281,-56.61"/>
</g>
</g>
</svg>
